<?xml version="1.0" encoding="utf-8"?>

<!DOCTYPE svg PUBLIC "-//W3C//DTD SVG 1.1//EN" "http://www.w3.org/Graphics/SVG/1.1/DTD/svg11.dtd">
<!-- Uploaded to: SVG Repo, www.svgrepo.com, Generator: SVG Repo Mixer Tools -->
<svg version="1.1" id="_x32_" xmlns="http://www.w3.org/2000/svg" xmlns:xlink="http://www.w3.org/1999/xlink" 
	 width="800px" height="800px" viewBox="0 0 512 512"  xml:space="preserve">
<style type="text/css">
<![CDATA[
	.st0{fill:#000000;}
]]>
</style>
<g>
	<rect x="63.047" y="57.313" class="st0" width="385.906" height="45.844"/>
	<path class="st0" d="M427.938,126.094H84.063C84.063,320.953,0,454.688,0,454.688h512C512,454.688,427.938,320.953,427.938,126.094
		z M249.203,280.422c2.063-1.203,4.422-1.813,6.781-1.813c4.859,0,9.391,2.594,11.797,6.797c3.75,6.5,1.531,14.844-4.969,18.594
		c-2.078,1.188-4.438,1.828-6.797,1.828c-4.859,0-9.375-2.609-11.797-6.813C240.469,292.516,242.688,284.188,249.203,280.422z
		 M205.469,204.063l37.047,64.172c-8.641,5-13.469,14.047-13.484,23.359h-74.094C155,256.703,173.125,222.734,205.469,204.063z
		 M205.469,379.109l37.063-64.156c4.031,2.344,8.688,3.625,13.484,3.625c4.703,0,9.375-1.25,13.469-3.609h0.016l37.031,64.156
		C274.203,397.813,235.719,396.516,205.469,379.109z M282.969,291.594c0.031-4.672-1.188-9.313-3.609-13.5
		c-2.391-4.141-5.828-7.516-9.875-9.844l37.047-64.156c14.906,8.563,27.813,21.047,37,36.969
		c9.203,15.922,13.563,33.344,13.516,50.531H282.969z"/>
</g>
</svg>